<svg id="Layer_1" data-name="Layer 1" xmlns="http://www.w3.org/2000/svg" viewBox="0 0 500 500"><defs><style>.cls-1{fill:#009688;}.cls-2{fill:#fff;}</style></defs><title>subjects_platform</title><path class="cls-1" d="M45.73,190.63V309.37a101.43,101.43,0,0,0,50.72,87.85l102.83,59.37a101.44,101.44,0,0,0,101.44,0l102.83-59.37a101.43,101.43,0,0,0,50.72-87.85V190.63a101.43,101.43,0,0,0-50.72-87.85L300.72,43.41a101.44,101.44,0,0,0-101.44,0L96.45,102.78A101.43,101.43,0,0,0,45.73,190.63Z"/><path class="cls-2" d="M350,296.43v-150a10.69,10.69,0,0,0-10.71-10.72H192.86A42.87,42.87,0,0,0,150,178.57V321.43a42.87,42.87,0,0,0,42.86,42.86H339.29A10.69,10.69,0,0,0,350,353.57v-7.14a10.79,10.79,0,0,0-4-8.35c-1.88-6.87-1.88-26.47,0-33.35a10.63,10.63,0,0,0,4-8.3ZM207.14,195.54a2.69,2.69,0,0,1,2.68-2.68h94.64a2.68,2.68,0,0,1,2.68,2.68v8.92a2.68,2.68,0,0,1-2.68,2.68H209.82a2.69,2.69,0,0,1-2.68-2.68Zm0,28.57a2.69,2.69,0,0,1,2.68-2.68h94.64a2.68,2.68,0,0,1,2.68,2.68V233a2.68,2.68,0,0,1-2.68,2.67H209.82a2.68,2.68,0,0,1-2.68-2.67Zm113.13,111.6H192.86a14.29,14.29,0,1,1,0-28.57H320.27A160.37,160.37,0,0,0,320.27,335.71Z"/></svg>